<?xml version="1.0" encoding="UTF-8" standalone="no"?>
<!DOCTYPE svg PUBLIC "-//W3C//DTD SVG 1.1//EN" "http://www.w3.org/Graphics/SVG/1.1/DTD/svg11.dtd">
<svg width="100%" height="100%" viewBox="0 0 257 249" version="1.1" xmlns="http://www.w3.org/2000/svg" xmlns:xlink="http://www.w3.org/1999/xlink" xml:space="preserve" xmlns:serif="http://www.serif.com/" style="fill-rule:evenodd;clip-rule:evenodd;stroke-linejoin:round;stroke-miterlimit:2;">
    <g transform="matrix(1,0,0,1,-5351.92,-101.995)">
        <g transform="matrix(0.64825,0,0,2.55638,4533.09,0)">
            <g id="_1_html_3master" serif:id="1_html_3master" transform="matrix(1.87941,0,0,0.759962,192.305,1.43147)">
                <g transform="matrix(0.791349,0,0,0.496267,757.816,87.1405)">
                    <path d="M0,101.953L0,-0C0,-4.543 -2.426,-8.741 -6.359,-11.012L-94.653,-61.988C-98.588,-64.261 -103.436,-64.261 -107.37,-61.988L-195.664,-11.012C-199.598,-8.741 -202.02,-4.543 -202.02,-0L-202.02,101.953C-202.02,106.496 -199.598,110.694 -195.664,112.965L-107.37,163.941C-103.436,166.214 -98.588,166.214 -94.653,163.941L-6.359,112.965C-2.426,110.694 0,106.496 0,101.953" style="fill:rgb(183,40,0);fill-rule:nonzero;"/>
                </g>
                <g transform="matrix(0.791349,0,0,0.496267,746.698,90.9233)">
                    <path d="M0,86.708L0,-0.002C0,-4.205 -2.243,-8.089 -5.884,-10.191L-80.976,-53.547C-84.617,-55.647 -89.102,-55.647 -92.743,-53.547L-167.835,-10.191C-171.476,-8.089 -173.719,-4.205 -173.719,-0.002L-173.719,86.708C-173.719,90.912 -171.476,94.797 -167.835,96.899L-92.743,140.253C-89.102,142.355 -84.617,142.355 -80.976,140.253L-5.884,96.899C-2.243,94.797 0,90.912 0,86.708" style="fill:white;fill-rule:nonzero;"/>
                </g>
                <g transform="matrix(0.791349,0,0,0.496267,710.893,139.245)">
                    <path d="M0,-94.428L-83.434,-94.428L-75.618,-9.612L-41.717,0L-7.831,-9.612L0,-94.428Z" style="fill:rgb(227,79,38);fill-rule:nonzero;"/>
                </g>
                <g transform="matrix(0.791349,0,0,0.496267,659.036,86.2108)">
                    <path d="M0,-5.324L-4.818,-5.324L-4.818,-10.579L-10.146,-10.579L-10.146,5.255L-4.818,5.255L-4.818,0.002L0,0.002L0,5.255L5.315,5.255L5.315,-10.579L0,-10.579L0,-5.324ZM42.313,-10.579L36.686,-10.579L33.388,-5.165L30.087,-10.579L24.561,-10.579L24.561,5.255L29.715,5.255L29.715,-2.65L33.374,3.054L33.388,3.066L33.398,3.054L37.159,-2.813L37.159,5.255L42.313,5.255L42.313,-10.579ZM7.643,-5.252L12.272,-5.252L12.272,5.255L17.603,5.255L17.603,-5.252L22.234,-5.252L22.234,-10.579L7.643,-10.579L7.643,-5.252ZM50.343,-0.073L50.343,-10.579L45.027,-10.579L45.027,5.255L57.762,5.255L57.762,-0.073L50.343,-0.073Z" style="fill:rgb(0,1,1);fill-rule:nonzero;"/>
                </g>
                <g transform="matrix(0,0.496267,0.791349,0,723.173,107.276)">
                    <path d="M-23.1,-57.235L57.235,-57.235L49.453,-29.786L-23.1,-23.1L-23.1,-57.235Z" style="fill:rgb(241,102,42);fill-rule:nonzero;"/>
                </g>
                <g transform="matrix(0.791349,0,0,0.496267,698.649,130.317)">
                    <path d="M0,-59.122L-52.498,-59.122L-49.56,-27.362L-49.497,-27.563L-13.632,-27.563L-14.803,-14.131L-26.245,-10.833L-37.86,-14.179L-38.555,-22.31L-49.1,-22.31L-47.593,-6.064L-26.245,0L-4.896,-6.064L-1.955,-37.947L-40.013,-37.947L-40.998,-48.575L-0.972,-48.575L0,-59.122Z" style="fill:white;fill-rule:nonzero;"/>
                </g>
                <g transform="matrix(0.791349,0,0,0.496267,677.88,130.311)">
                    <path d="M0,-59.11L-26.253,-59.11L-23.316,-27.35L-23.252,-27.551L0,-27.551L0,-37.935L-13.768,-37.935L-14.754,-48.563L0,-48.563L0,-59.11ZM-12.311,-22.298L-22.855,-22.298L-21.349,-6.052L0,0L0,-10.821L-11.616,-14.167L-12.311,-22.298Z" style="fill:rgb(235,235,235);fill-rule:nonzero;"/>
                </g>
                <g transform="matrix(0.791349,0,0,0.496267,764.723,84.9666)">
                    <path d="M0,110.712L0,0.002C0,-4.95 -2.642,-9.526 -6.931,-12.005L-102.809,-67.36C-107.099,-69.837 -112.384,-69.835 -116.672,-67.36L-212.55,-12.005C-216.84,-9.526 -219.482,-4.95 -219.482,0.002L-219.482,110.712C-219.482,115.665 -216.84,120.24 -212.55,122.719L-116.672,178.072C-112.384,180.549 -107.099,180.549 -102.809,178.072L-6.931,122.719C-2.642,120.24 0,115.665 0,110.712M-2.293,110.712C-2.293,114.846 -4.498,118.664 -8.078,120.732L-103.955,176.087C-107.536,178.153 -111.946,178.153 -115.525,176.087L-211.403,120.732C-214.983,118.664 -217.189,114.846 -217.189,110.712L-217.189,0.002C-217.189,-4.132 -214.983,-7.95 -211.403,-10.018L-115.525,-65.373C-111.946,-67.441 -107.536,-67.441 -103.955,-65.373L-8.078,-10.018C-4.498,-7.95 -2.293,-4.132 -2.293,0.002L-2.293,110.712Z" style="fill:rgb(183,40,0);"/>
                </g>
                <g transform="matrix(0.791349,0,0,0.496267,574.623,196.947)">
                    <path d="M0,-138.995C0,-138.995 128.542,-54.286 259.811,-135.602L234.45,-83.549L259.811,-62.338C259.811,-62.338 133.901,0 5.424,-70.33L31.115,-93.329L0,-138.995Z" style="fill:rgb(25,25,25);fill-rule:nonzero;"/>
                </g>
                <g transform="matrix(0.791349,0,0,0.496267,569.772,193.851)">
                    <path d="M0,-139.15C0,-139.15 125.684,-54.137 256.952,-135.455L240.614,-94.002L262.457,-68.82C262.457,-68.82 128.477,0 0,-70.33L22.935,-94.002L0,-139.15Z" style="fill:rgb(52,52,52);fill-rule:nonzero;"/>
                </g>
                <g transform="matrix(0.8044,-0.00464658,0.00740945,0.504451,-3735.11,-240.134)">
                    <path d="M5428.77,855.914L5431.61,840.424L5438.09,841.609L5439.45,849.535L5443.52,842.604L5450,843.791L5447.17,859.281L5442.47,858.422L5444.18,849.112L5439.01,857.788L5436.92,857.404L5435.16,847.461L5433.46,856.771L5428.77,855.914Z" style="fill:white;fill-rule:nonzero;"/>
                    <path d="M5449.15,859.554L5456.56,844.493L5462.52,845.113L5466.67,861.378L5461.29,860.818L5460.92,858.925L5455.28,858.338L5454.53,860.114L5449.15,859.554ZM5456.98,854.342L5460.08,854.665L5459.06,849.447L5456.98,854.342Z" style="fill:white;fill-rule:nonzero;"/>
                    <path d="M5467.58,859.159L5470.18,855.707C5470.79,856.336 5471.53,856.852 5472.39,857.255C5473.25,857.658 5474.19,857.876 5475.19,857.911C5475.69,857.929 5476.11,857.874 5476.44,857.747C5476.78,857.62 5476.95,857.415 5476.96,857.131C5476.97,856.969 5476.87,856.831 5476.68,856.717C5476.48,856.603 5476.22,856.503 5475.88,856.418C5475.55,856.334 5475.16,856.247 5474.72,856.159C5474.28,856.071 5473.82,855.964 5473.34,855.84C5472.86,855.716 5472.38,855.57 5471.9,855.404C5471.42,855.237 5470.97,855.016 5470.53,854.739C5470.1,854.463 5469.72,854.146 5469.4,853.788C5469.07,853.431 5468.82,852.982 5468.64,852.441C5468.45,851.9 5468.38,851.3 5468.4,850.639C5468.42,849.963 5468.58,849.321 5468.89,848.713C5469.19,848.104 5469.61,847.565 5470.16,847.096C5470.71,846.626 5471.41,846.26 5472.26,845.998C5473.12,845.735 5474.07,845.622 5475.11,845.658C5477.78,845.751 5479.98,846.558 5481.72,848.079L5479.05,851.366C5478.41,850.844 5477.68,850.434 5476.86,850.137C5476.05,849.84 5475.25,849.677 5474.48,849.65C5473.68,849.623 5473.27,849.843 5473.25,850.312C5473.25,850.465 5473.34,850.603 5473.54,850.725C5473.74,850.847 5474,850.953 5474.34,851.041C5474.67,851.13 5475.06,851.222 5475.49,851.318C5475.93,851.414 5476.38,851.526 5476.86,851.654C5477.34,851.782 5477.82,851.931 5478.3,852.102C5478.78,852.272 5479.23,852.492 5479.66,852.76C5480.09,853.029 5480.47,853.336 5480.8,853.682C5481.12,854.028 5481.38,854.458 5481.56,854.972C5481.74,855.485 5481.82,856.053 5481.8,856.676C5481.74,858.404 5481.09,859.729 5479.85,860.651C5478.61,861.573 5476.93,861.997 5474.81,861.924C5471.79,861.819 5469.38,860.897 5467.58,859.159Z" style="fill:white;fill-rule:nonzero;"/>
                    <path d="M5482.66,850.272L5482.52,846.124L5495.72,845.702L5495.85,849.85L5491.64,849.984L5492.01,861.576L5487.24,861.728L5486.87,850.137L5482.66,850.272Z" style="fill:white;fill-rule:nonzero;"/>
                    <path d="M5499.11,861.225L5497.47,845.565L5509.34,844.313L5509.78,848.441L5502.63,849.193L5502.8,850.752L5509.78,850.017L5510.22,854.144L5503.23,854.88L5503.41,856.599L5510.56,855.847L5510.99,859.974L5499.11,861.225Z" style="fill:white;fill-rule:nonzero;"/>
                    <path d="M5514.27,859.543L5511.35,844.069L5519.61,842.509C5520.77,842.289 5521.83,842.342 5522.78,842.667C5523.73,842.992 5524.48,843.512 5525.05,844.227C5525.61,844.941 5525.99,845.789 5526.17,846.771C5526.29,847.405 5526.32,848.009 5526.25,848.581C5526.18,849.153 5526.04,849.653 5525.82,850.081C5525.61,850.509 5525.37,850.876 5525.12,851.182C5524.86,851.488 5524.58,851.757 5524.27,851.987L5528.12,856.928L5522.78,857.936L5519.73,853.467L5518.03,853.788L5518.95,858.659L5514.27,859.543ZM5517.26,849.699L5520.11,849.159C5520.54,849.078 5520.89,848.908 5521.14,848.648C5521.4,848.389 5521.49,848.055 5521.41,847.647C5521.34,847.254 5521.13,846.982 5520.8,846.83C5520.47,846.678 5520.08,846.643 5519.65,846.724L5516.8,847.263L5517.26,849.699Z" style="fill:white;fill-rule:nonzero;"/>
                </g>
                <g transform="matrix(1,0,0,0.635874,77.7229,-68.2392)">
                    <g transform="matrix(0.791349,0,0,0.780449,-3739.41,107.316)">
                        <path d="M5463.73,299.876C5463.65,299.714 5463.49,299.612 5463.31,299.612C5463.13,299.612 5462.96,299.714 5462.88,299.876L5460.54,304.627C5460.54,304.627 5455.29,305.389 5455.29,305.389C5455.11,305.415 5454.97,305.541 5454.91,305.713C5454.86,305.885 5454.9,306.073 5455.03,306.199L5458.82,309.897C5458.82,309.897 5457.93,315.118 5457.93,315.118C5457.9,315.297 5457.97,315.477 5458.12,315.583C5458.27,315.689 5458.46,315.703 5458.62,315.619L5463.31,313.154C5463.31,313.154 5468,315.619 5468,315.619C5468.16,315.703 5468.35,315.689 5468.5,315.583C5468.64,315.477 5468.72,315.297 5468.69,315.118L5467.79,309.897C5467.79,309.897 5471.58,306.199 5471.58,306.199C5471.71,306.073 5471.76,305.885 5471.7,305.713C5471.65,305.541 5471.5,305.415 5471.32,305.389L5466.08,304.627C5466.08,304.627 5463.73,299.876 5463.73,299.876Z" style="fill:rgb(255,195,0);fill-rule:nonzero;"/>
                    </g>
                    <g transform="matrix(0.791349,0,0,0.780449,-3739.41,107.316)">
                        <path d="M5484.29,299.79C5484.21,299.628 5484.04,299.525 5483.86,299.525C5483.68,299.525 5483.52,299.628 5483.44,299.79L5481.09,304.54C5481.09,304.54 5475.85,305.302 5475.85,305.302C5475.67,305.328 5475.52,305.453 5475.47,305.625C5475.41,305.797 5475.46,305.986 5475.59,306.112L5479.38,309.81C5479.38,309.81 5478.48,315.032 5478.48,315.032C5478.45,315.21 5478.53,315.39 5478.67,315.496C5478.82,315.603 5479.01,315.617 5479.17,315.532L5483.86,313.067C5483.86,313.067 5488.55,315.532 5488.55,315.532C5488.71,315.617 5488.91,315.603 5489.05,315.496C5489.2,315.39 5489.27,315.21 5489.24,315.032L5488.35,309.81C5488.35,309.81 5492.14,306.112 5492.14,306.112C5492.27,305.986 5492.32,305.797 5492.26,305.625C5492.2,305.453 5492.06,305.328 5491.88,305.302L5486.63,304.54C5486.63,304.54 5484.29,299.79 5484.29,299.79Z" style="fill:rgb(255,195,0);fill-rule:nonzero;"/>
                    </g>
                    <g transform="matrix(0.791349,0,0,0.780449,-3739.41,107.316)">
                        <path d="M5504.84,299.853C5504.76,299.691 5504.6,299.588 5504.42,299.588C5504.24,299.588 5504.07,299.691 5503.99,299.853L5501.65,304.604C5501.65,304.604 5496.4,305.365 5496.4,305.365C5496.23,305.391 5496.08,305.517 5496.02,305.689C5495.97,305.86 5496.01,306.049 5496.14,306.175L5499.94,309.873C5499.94,309.873 5499.04,315.095 5499.04,315.095C5499.01,315.273 5499.08,315.453 5499.23,315.56C5499.38,315.666 5499.57,315.68 5499.73,315.596L5504.42,313.131C5504.42,313.131 5509.11,315.596 5509.11,315.596C5509.27,315.68 5509.46,315.666 5509.61,315.56C5509.75,315.453 5509.83,315.273 5509.8,315.095L5508.9,309.873C5508.9,309.873 5512.69,306.175 5512.69,306.175C5512.82,306.049 5512.87,305.86 5512.81,305.689C5512.76,305.517 5512.61,305.391 5512.43,305.365L5507.19,304.604C5507.19,304.604 5504.84,299.853 5504.84,299.853Z" style="fill:rgb(255,195,0);fill-rule:nonzero;"/>
                    </g>
                </g>
            </g>
        </g>
    </g>
</svg>
